<?xml version="1.0" encoding="UTF-8" standalone="no"?>
<!-- Created with Inkscape (http://www.inkscape.org/) -->

<svg
   xmlns:dc="http://purl.org/dc/elements/1.1/"
   xmlns:cc="http://creativecommons.org/ns#"
   xmlns:rdf="http://www.w3.org/1999/02/22-rdf-syntax-ns#"
   xmlns:svg="http://www.w3.org/2000/svg"
   xmlns="http://www.w3.org/2000/svg"
   xmlns:sodipodi="http://sodipodi.sourceforge.net/DTD/sodipodi-0.dtd"
   xmlns:inkscape="http://www.inkscape.org/namespaces/inkscape"
   width="256px"
   height="256px"
   viewBox="0 0 256 256"
   version="1.1"
   id="SVGRoot"
   inkscape:version="0.92.5 (2060ec1f9f, 2020-04-08)"
   sodipodi:docname="drawing.svg">
  <defs
     id="defs37" />
  <sodipodi:namedview
     id="base"
     pagecolor="#ffffff"
     bordercolor="#666666"
     borderopacity="1.0"
     inkscape:pageopacity="0.0"
     inkscape:pageshadow="2"
     inkscape:zoom="1.4142136"
     inkscape:cx="77.400854"
     inkscape:cy="44.045211"
     inkscape:document-units="px"
     inkscape:current-layer="layer1"
     showgrid="false"
     inkscape:window-width="960"
     inkscape:window-height="1016"
     inkscape:window-x="0"
     inkscape:window-y="27"
     inkscape:window-maximized="0"
     inkscape:grid-bbox="true" />
  <metadata
     id="metadata40">
    <rdf:RDF>
      <cc:Work
         rdf:about="">
        <dc:format>image/svg+xml</dc:format>
        <dc:type
           rdf:resource="http://purl.org/dc/dcmitype/StillImage" />
        <dc:title />
      </cc:Work>
    </rdf:RDF>
  </metadata>
  <g
     inkscape:label="Layer 1"
     inkscape:groupmode="layer"
     id="layer1">
    <path
       inkscape:connector-curvature="0"
       d="m 79.469279,230.36826 a 17.427996,17.427996 0 0 1 -7.075504,6.15975 20.602323,20.602323 0 0 1 -8.972709,2.09843 22.75413,22.75413 0 0 1 -9.034308,-1.72474 20.598217,20.598217 0 0 1 -6.894815,-4.71837 21.234725,21.234725 0 0 1 -4.443234,-7.0755 25.160541,25.160541 0 0 1 0,-17.60047 21.234725,21.234725 0 0 1 4.443234,-7.0755 20.598217,20.598217 0 0 1 6.894815,-4.71837 22.75413,22.75413 0 0 1 9.034308,-1.72474 20.203993,20.203993 0 0 1 8.980916,2.13128 17.579937,17.579937 0 0 1 7.075507,6.30758 h 0.18068 V 168.9473 h 6.15976 v 68.5786 h -6.15976 v -7.15764 z M 47.98883,216.30759 a 20.121863,20.121863 0 0 0 1.088223,6.66896 16.154981,16.154981 0 0 0 3.129156,5.44112 14.200285,14.200285 0 0 0 5.055105,3.63014 16.733998,16.733998 0 0 0 6.804471,1.31409 16.01536,16.01536 0 0 0 11.674784,-4.89906 16.208365,16.208365 0 0 0 3.40429,-5.39594 19.280029,19.280029 0 0 0 0,-13.51861 16.770956,16.770956 0 0 0 -3.40429,-5.44522 15.649881,15.649881 0 0 0 -5.17008,-3.62605 16.01536,16.01536 0 0 0 -6.533448,-1.31818 16.27407,16.27407 0 0 0 -6.775727,1.36336 14.725918,14.725918 0 0 0 -5.034577,3.67531 16.154981,16.154981 0 0 0 -3.129156,5.44113 20.121863,20.121863 0 0 0 -1.108751,6.66895 z"
       id="path4"
       style="stroke-width:0.41065025;fill:#333333"
       inkscape:export-xdpi="96"
       inkscape:export-ydpi="96" />
    <path
       inkscape:connector-curvature="0"
       d="m 144.52038,216.30759 a 23.18942,23.18942 0 0 1 -1.67955,8.89058 21.411304,21.411304 0 0 1 -4.68142,7.07551 21.160808,21.160808 0 0 1 -7.16585,4.67319 24.400839,24.400839 0 0 1 -9.16571,1.67957 24.121596,24.121596 0 0 1 -9.07127,-1.67957 21.123849,21.123849 0 0 1 -7.16584,-4.67319 21.353813,21.353813 0 0 1 -4.6732,-7.07551 24.372093,24.372093 0 0 1 0,-17.78116 20.943163,20.943163 0 0 1 11.83904,-11.7487 24.039466,24.039466 0 0 1 9.07127,-1.67956 24.318708,24.318708 0 0 1 9.16571,1.67956 20.943163,20.943163 0 0 1 11.83905,11.7487 23.18942,23.18942 0 0 1 1.68777,8.89058 z m -6.53344,0 a 19.44429,19.44429 0 0 0 -1.1334,-6.66895 16.360306,16.360306 0 0 0 -3.21128,-5.44113 15.231018,15.231018 0 0 0 -5.07974,-3.67531 16.039999,16.039999 0 0 0 -6.71414,-1.36336 15.703266,15.703266 0 0 0 -6.68538,1.36336 15.35832,15.35832 0 0 0 -5.03868,3.67531 16.282283,16.282283 0 0 0 -3.2195,5.44113 20.187566,20.187566 0 0 0 0,13.33791 16.282283,16.282283 0 0 0 3.2195,5.44112 14.783409,14.783409 0 0 0 5.03868,3.63014 16.142661,16.142661 0 0 0 6.66485,1.31409 16.491714,16.491714 0 0 0 6.71413,-1.31409 14.67664,14.67664 0 0 0 5.10028,-3.63014 16.360306,16.360306 0 0 0 3.2236,-5.44112 19.44429,19.44429 0 0 0 1.12108,-6.66896 z"
       id="path6"
       style="stroke-width:0.41065025;fill:#333333"
       inkscape:export-xdpi="96"
       inkscape:export-ydpi="96" />
    <path
       inkscape:connector-curvature="0"
       d="M 176.90836,200.25117 H 164.9297 v 24.76632 a 14.0196,14.0196 0 0 0 0.45582,3.90117 5.4903939,5.4903939 0 0 0 1.31408,2.40231 4.4801943,4.4801943 0 0 0 2.05326,1.18267 9.8556063,9.8556063 0 0 0 2.54192,0.3162 10.726184,10.726184 0 0 0 2.67744,-0.36137 13.309175,13.309175 0 0 0 2.67333,-1.00199 l 0.27513,5.33846 a 18.561392,18.561392 0 0 1 -3.40429,0.9527 22.072451,22.072451 0 0 1 -3.856,0.31621 15.83878,15.83878 0 0 1 -3.63015,-0.45172 9.2108856,9.2108856 0 0 1 -3.5357,-1.72474 9.4449557,9.4449557 0 0 1 -2.67743,-3.44535 q -1.04306,-2.18055 -1.04306,-5.71625 v -26.47462 h -8.81255 v -5.1742 h 8.80023 v -11.98688 h 6.15975 v 11.97456 h 11.97868 z"
       id="path8"
       style="stroke-width:0.41065025;fill:#333333"
       inkscape:export-xdpi="96"
       inkscape:export-ydpi="96" />
    <path
       inkscape:connector-curvature="0"
       d="m 209.11156,205.15023 a 10.841167,10.841167 0 0 0 -4.1065,-4.31183 11.92939,11.92939 0 0 0 -6.30348,-1.67956 14.99284,14.99284 0 0 0 -3.28521,0.36548 8.8454069,8.8454069 0 0 0 -2.90329,1.17856 6.430783,6.430783 0 0 0 -2.05325,2.08611 5.67108,5.67108 0 0 0 -0.77203,2.99363 5.1372347,5.1372347 0 0 0 2.4639,4.58286 q 2.46391,1.58922 7.71202,2.67745 7.52721,1.53993 11.11219,4.4884 3.58498,2.94847 3.56445,7.93787 0,3.63426 -1.40853,6.1269 a 12.241484,12.241484 0 0 1 -3.67122,4.08186 14.820368,14.820368 0 0 1 -5.12902,2.2668 24.659548,24.659548 0 0 1 -5.7491,0.68168 22.971776,22.971776 0 0 1 -9.34229,-1.99577 17.296589,17.296589 0 0 1 -7.44099,-6.26241 l 4.89906,-3.62605 a 13.871766,13.871766 0 0 0 11.79387,6.61969 19.358053,19.358053 0 0 0 3.81084,-0.36138 8.7838093,8.7838093 0 0 0 3.17844,-1.26891 6.9523088,6.9523088 0 0 0 2.17644,-2.31606 6.8701788,6.8701788 0 0 0 0.8213,-3.49053 q 0,-3.35501 -3.22361,-5.03457 -3.2236,-1.67956 -9.29711,-3.12915 -1.90131,-0.45583 -4.0367,-1.13751 a 13.69108,13.69108 0 0 1 -3.94635,-1.99575 10.845273,10.845273 0 0 1 -2.99775,-3.30985 9.6913457,9.6913457 0 0 1 -1.17856,-4.9894 11.411971,11.411971 0 0 1 1.27302,-5.58074 11.157368,11.157368 0 0 1 3.40018,-3.81083 15.16942,15.16942 0 0 1 4.85389,-2.22162 21.702866,21.702866 0 0 1 5.6259,-0.72685 19.776917,19.776917 0 0 1 8.62366,1.99576 13.904618,13.904618 0 0 1 6.25831,5.62591 z"
       id="path10"
       style="stroke-width:0.41065025;fill:#333333"
       inkscape:export-xdpi="96"
       inkscape:export-ydpi="96" />
    <path
       inkscape:connector-curvature="0"
       d="M 75.329919,49.037414 H 65.359336 V 86.324466 H 59.199584 V 49.037414 h -8.898797 v -5.157761 h 8.890581 V 32.25414 q 0,-7.256191 3.539803,-11.432505 3.539803,-4.176307 10.886338,-4.172203 c 0.78434,0 1.64261,0.04515 2.53782,0.135512 a 13.33792,13.33792 0 0 1 2.54193,0.496887 l -1.08823,5.445225 q -0.99788,-0.271031 -1.99575,-0.455823 a 12.935483,12.935483 0 0 0 -2.26679,-0.180688 8.8412996,8.8412996 0 0 0 -4.040806,0.821303 5.8640856,5.8640856 0 0 0 -2.463901,2.311957 10.114316,10.114316 0 0 0 -1.178567,3.494636 26.914018,26.914018 0 0 0 -0.320303,4.262554 v 10.898658 h 9.987007 z"
       id="path12"
       style="stroke-width:0.41065025;fill:#333333"
       inkscape:export-xdpi="96"
       inkscape:export-ydpi="96" />
    <path
       inkscape:connector-curvature="0"
       d="m 84.048029,48.76639 q -0.0862,-2.722612 -0.27103,-4.899057 h 5.896943 q 0.18479,1.724725 0.27513,3.806723 c 0.0575,1.396214 0.0904,2.541924 0.0904,3.449467 h 0.18068 a 14.668427,14.668427 0 0 1 5.44112,-6.01192 14.85322,14.85322 0 0 1 8.167828,-2.311965 c 0.78434,0 1.49477,0.0287 2.13127,0.09034 a 11.338053,11.338053 0 0 1 1.95059,0.361376 l -0.8213,5.896936 a 11.637828,11.637828 0 0 0 -1.81507,-0.361376 17.588151,17.588151 0 0 0 -2.53782,-0.184792 12.606963,12.606963 0 0 0 -4.718368,0.907535 10.073251,10.073251 0 0 0 -3.94635,2.849917 14.955882,14.955882 0 0 0 -2.72671,4.956545 22.548806,22.548806 0 0 0 -1.04306,7.289047 v 21.7193 H 84.142529 V 53.209624 c 0,-1.145718 -0.0328,-2.632268 -0.0945,-4.443234 z"
       id="path14"
       style="stroke-width:0.41065025;fill:#333333"
       inkscape:export-xdpi="96"
       inkscape:export-ydpi="96" />
    <path
       inkscape:connector-curvature="0"
       d="m 153.81751,63.82493 v 1.359255 a 14.754664,14.754664 0 0 1 -0.0904,1.544046 h -35.20089 a 16.524566,16.524566 0 0 0 1.26891,5.98728 15.01748,15.01748 0 0 0 3.2852,4.899058 15.781289,15.781289 0 0 0 4.89906,3.313947 15.124249,15.124249 0 0 0 6.08173,1.23195 q 4.80461,0 8.29924,-2.221621 a 16.623122,16.623122 0 0 0 5.30971,-5.129017 l 4.62392,3.630147 q -3.80672,4.812821 -8.38958,6.894811 a 23.456343,23.456343 0 0 1 -9.8515,2.07379 22.606297,22.606297 0 0 1 -8.75506,-1.67545 20.503768,20.503768 0 0 1 -6.93999,-4.6732 22.060132,22.060132 0 0 1 -4.58286,-7.079609 23.099077,23.099077 0 0 1 -1.67956,-8.89058 23.743798,23.743798 0 0 1 1.6426,-8.890581 21.460582,21.460582 0 0 1 4.51715,-7.075502 20.881566,20.881566 0 0 1 6.80037,-4.673202 21.160808,21.160808 0 0 1 8.43886,-1.675454 21.678227,21.678227 0 0 1 8.80024,1.675454 18.183593,18.183593 0 0 1 6.35276,4.53769 19.534633,19.534633 0 0 1 3.856,6.668959 24.889512,24.889512 0 0 1 1.31409,8.167829 z m -6.25832,-1.995757 q -0.27513,-5.98728 -3.856,-9.933627 -3.58087,-3.946355 -10.20877,-3.946355 a 14.290629,14.290629 0 0 0 -5.71625,1.133399 15.095503,15.095503 0 0 0 -4.62392,3.08398 15.341894,15.341894 0 0 0 -3.17844,4.443234 14.323481,14.323481 0 0 0 -1.35925,5.215265 z"
       id="path16"
       style="stroke-width:0.41065025;fill:#333333"
       inkscape:export-xdpi="96"
       inkscape:export-ydpi="96" />
    <path
       inkscape:connector-curvature="0"
       d="m 205.71137,63.82493 v 1.359255 a 14.754664,14.754664 0 0 1 -0.0903,1.544046 h -35.20094 a 16.426011,16.426011 0 0 0 1.26891,5.98728 15.01748,15.01748 0 0 0 3.28521,4.899058 15.781289,15.781289 0 0 0 4.89905,3.313947 15.124249,15.124249 0 0 0 6.08173,1.23195 q 4.80461,0 8.29925,-2.221621 a 16.623122,16.623122 0 0 0 5.3097,-5.129017 l 4.62392,3.630147 q -3.80673,4.812821 -8.38958,6.894811 a 23.456343,23.456343 0 0 1 -9.85561,2.08611 22.606297,22.606297 0 0 1 -8.77148,-1.68367 20.503768,20.503768 0 0 1 -6.93999,-4.6732 22.060132,22.060132 0 0 1 -4.55822,-7.079605 23.099077,23.099077 0 0 1 -1.67956,-8.89058 23.743798,23.743798 0 0 1 1.6426,-8.890581 21.460582,21.460582 0 0 1 4.51715,-7.075502 20.881566,20.881566 0 0 1 6.80037,-4.673194 21.160808,21.160808 0 0 1 8.43065,-1.675454 21.678227,21.678227 0 0 1 8.80023,1.675454 18.183593,18.183593 0 0 1 6.35276,4.537682 19.534633,19.534633 0 0 1 3.85601,6.668959 24.889512,24.889512 0 0 1 1.31818,8.163725 z m -6.26241,-1.995757 q -0.27103,-5.98728 -3.8519,-9.933627 -3.58087,-3.946355 -10.21287,-3.946355 a 14.290629,14.290629 0 0 0 -5.71625,1.133399 15.165314,15.165314 0 0 0 -4.62803,3.08398 15.329574,15.329574 0 0 0 -3.17022,4.443234 14.323481,14.323481 0 0 0 -1.35925,5.215265 z"
       id="path18"
       style="stroke-width:0.41065025;fill:#333333"
       inkscape:export-xdpi="96"
       inkscape:export-ydpi="96" />
    <path
       inkscape:connector-curvature="0"
       d="m 76.434569,106.27386 v 34.96276 H 65.798727 V 106.27386 H 53.356023 v -9.083594 h 35.525356 v 9.083594 z"
       id="path20"
       style="stroke-width:0.41065025;fill:#333333"
       inkscape:export-xdpi="96"
       inkscape:export-ydpi="96" />
    <path
       inkscape:connector-curvature="0"
       d="m 140.38513,141.23662 h -10.51264 l -8.70989,-29.79678 h -0.18479 l -8.68937,29.79678 H 101.69367 L 89.189369,97.190266 h 11.444821 l 6.98106,29.304004 h 0.15604 l 7.83931,-29.304004 h 11.08756 l 7.90092,29.304004 h 0.18889 l 7.09193,-29.304004 h 11.08756 z"
       id="path22"
       style="stroke-width:0.41065025;fill:#333333"
       inkscape:export-xdpi="96"
       inkscape:export-ydpi="96" />
    <path
       inkscape:connector-curvature="0"
       d="m 202.65614,119.02865 a 24.552779,24.552779 0 0 1 -1.80276,9.54762 21.764464,21.764464 0 0 1 -5.00993,7.39171 22.281883,22.281883 0 0 1 -7.61756,4.75943 26.815462,26.815462 0 0 1 -9.58047,1.70831 26.544433,26.544433 0 0 1 -9.55173,-1.67956 22.351693,22.351693 0 0 1 -7.58881,-4.75944 21.69876,21.69876 0 0 1 -5.00583,-7.3917 24.552779,24.552779 0 0 1 -1.80686,-9.54762 24.26943,24.26943 0 0 1 1.80686,-9.55172 20.848714,20.848714 0 0 1 5.00583,-7.24388 22.249031,22.249031 0 0 1 7.58881,-4.603394 27.35752,27.35752 0 0 1 9.55173,-1.62617 27.636762,27.636762 0 0 1 9.58047,1.61795 22.175113,22.175113 0 0 1 7.61756,4.603404 20.914417,20.914417 0 0 1 5.00993,7.24387 24.26943,24.26943 0 0 1 1.80276,9.53119 z m -11.38323,0 a 15.157101,15.157101 0 0 0 -0.93217,-5.33845 12.836927,12.836927 0 0 0 -2.58299,-4.26255 11.941709,11.941709 0 0 0 -3.98331,-2.80064 12.627496,12.627496 0 0 0 -5.12902,-1.02251 12.204526,12.204526 0 0 0 -9.08358,3.82315 12.134715,12.134715 0 0 0 -2.583,4.26255 16.536886,16.536886 0 0 0 0.0328,10.85349 12.992974,12.992974 0 0 0 2.58298,4.32415 11.728171,11.728171 0 0 0 3.94635,2.82938 13.140808,13.140808 0 0 0 10.20466,0 12.069011,12.069011 0 0 0 3.9792,-2.82938 12.795862,12.795862 0 0 0 2.61585,-4.32415 15.760757,15.760757 0 0 0 0.93217,-5.51504 z"
       id="path24"
       style="stroke-width:0.41065025;fill:#333333"
       inkscape:export-xdpi="96"
       inkscape:export-ydpi="96" />
    <path
       inkscape:connector-curvature="0"
       d="m 146.048,215.94212 a 24.536353,24.536353 0 0 1 -1.80275,9.54761 21.764464,21.764464 0 0 1 -5.00994,7.39171 22.281883,22.281883 0 0 1 -7.61756,4.75943 26.725119,26.725119 0 0 1 -9.58047,1.70831 26.458196,26.458196 0 0 1 -9.55173,-1.67956 22.351693,22.351693 0 0 1 -7.58881,-4.75944 21.69876,21.69876 0 0 1 -5.005828,-7.3917 24.536353,24.536353 0 0 1 -1.80686,-9.54762 24.261217,24.261217 0 0 1 1.80686,-9.54762 20.865139,20.865139 0 0 1 5.005828,-7.26029 22.314735,22.314735 0 0 1 7.58881,-4.60339 27.35752,27.35752 0 0 1 9.55173,-1.61386 27.636762,27.636762 0 0 1 9.58047,1.61796 22.249031,22.249031 0 0 1 7.61756,4.60339 20.943163,20.943163 0 0 1 5.00994,7.24798 24.261217,24.261217 0 0 1 1.80275,9.52709 z m -11.38322,0 a 15.194059,15.194059 0 0 0 -0.93218,-5.33846 12.836927,12.836927 0 0 0 -2.58299,-4.26255 11.933496,11.933496 0 0 0 -3.98331,-2.79653 12.561792,12.561792 0 0 0 -5.12902,-1.02662 12.266123,12.266123 0 0 0 -9.08358,3.82315 12.134715,12.134715 0 0 0 -2.58299,4.26255 16.549206,16.549206 0 0 0 0.0328,10.85759 12.931377,12.931377 0 0 0 2.583,4.33647 11.715852,11.715852 0 0 0 3.95045,2.83349 13.181873,13.181873 0 0 0 10.20055,0 12.077224,12.077224 0 0 0 3.97921,-2.83349 12.730158,12.730158 0 0 0 2.61583,-4.32004 15.785396,15.785396 0 0 0 0.93219,-5.53556 z"
       id="path26"
       style="stroke-width:0.41065025;fill:#333333"
       inkscape:export-xdpi="96"
       inkscape:export-ydpi="96" />
    <rect
       x="207.27098"
       y="31.572313"
       width="6.2049251"
       height="79.037857"
       transform="rotate(30)"
       id="rect28"
       style="stroke-width:0.41065025;fill:#333333"
       inkscape:export-xdpi="96"
       inkscape:export-ydpi="96" />
  </g>
</svg>
