<?xml version="1.0" encoding="UTF-8" standalone="no"?>
<!-- Created with Inkscape (http://www.inkscape.org/) -->

<svg
   xmlns:dc="http://purl.org/dc/elements/1.1/"
   xmlns:cc="http://creativecommons.org/ns#"
   xmlns:rdf="http://www.w3.org/1999/02/22-rdf-syntax-ns#"
   xmlns:svg="http://www.w3.org/2000/svg"
   xmlns="http://www.w3.org/2000/svg"
   xmlns:sodipodi="http://sodipodi.sourceforge.net/DTD/sodipodi-0.dtd"
   xmlns:inkscape="http://www.inkscape.org/namespaces/inkscape"
   width="256px"
   height="256px"
   viewBox="0 0 256 256"
   version="1.1"
   id="SVGRoot"
   inkscape:version="0.92.5 (2060ec1f9f, 2020-04-08)"
   sodipodi:docname="free2dots.svg">
  <defs
     id="defs18" />
  <sodipodi:namedview
     id="base"
     pagecolor="#ffffff"
     bordercolor="#666666"
     borderopacity="1.0"
     inkscape:pageopacity="0.0"
     inkscape:pageshadow="2"
     inkscape:zoom="1"
     inkscape:cx="-57"
     inkscape:cy="126"
     inkscape:document-units="px"
     inkscape:current-layer="layer1"
     showgrid="false"
     inkscape:window-width="1920"
     inkscape:window-height="1016"
     inkscape:window-x="0"
     inkscape:window-y="27"
     inkscape:window-maximized="1"
     inkscape:grid-bbox="true" />
  <metadata
     id="metadata21">
    <rdf:RDF>
      <cc:Work
         rdf:about="">
        <dc:format>image/svg+xml</dc:format>
        <dc:type
           rdf:resource="http://purl.org/dc/dcmitype/StillImage" />
        <dc:title />
      </cc:Work>
    </rdf:RDF>
  </metadata>
  <g
     inkscape:label="Layer 1"
     inkscape:groupmode="layer"
     id="layer1">
    <path
       style="display:inline;stroke-width:0.46142191"
       d="m -271.68205,-1.68623 h -11.20333 v 41.89711 h -6.92133 V -1.68623 h -9.99901 v -5.79546 h 9.98979 v -13.06286 q 0,-8.15332 3.97745,-12.84598 3.97746,-4.69266 12.2323,-4.68805 c 0.88131,0 1.84568,0.0508 2.85158,0.15227 a 14.986984,14.986984 0 0 1 2.85621,0.55832 l -1.22277,6.11845 q -1.12126,-0.30453 -2.24251,-0.51217 a 14.53479,14.53479 0 0 0 -2.54705,-0.20303 9.9344137,9.9344137 0 0 0 -4.54039,0.92284 6.5891049,6.5891049 0 0 0 -2.76853,2.59781 11.364822,11.364822 0 0 0 -1.32429,3.9267 30.241592,30.241592 0 0 0 -0.3599,4.78956 v 12.24614 h 11.22178 z"
       id="path12"
       inkscape:connector-curvature="0" />
    <path
       style="display:inline;stroke-width:0.46142191"
       d="m -261.88607,-1.99077 q -0.0969,-3.05923 -0.30453,-5.50477 h 6.62601 q 0.20764,1.93798 0.30916,4.27738 c 0.0646,1.56884 0.10151,2.85621 0.10151,3.87595 h 0.20303 a 16.481991,16.481991 0 0 1 6.11384,-6.75522 16.68963,16.68963 0 0 1 9.17768,-2.5978 c 0.88131,0 1.67957,0.0323 2.39478,0.10151 a 12.739859,12.739859 0 0 1 2.19175,0.40605 l -0.92284,6.62602 a 13.076697,13.076697 0 0 0 -2.03949,-0.40605 19.7627,19.7627 0 0 0 -2.85159,-0.20764 14.165653,14.165653 0 0 0 -5.30173,1.01974 11.318679,11.318679 0 0 0 -4.43427,3.20227 16.804986,16.804986 0 0 0 -3.06384,5.56936 25.336677,25.336677 0 0 0 -1.17201,8.19024 v 24.40461 h -6.92133 V 3.00181 c 0,-1.28736 -0.0369,-2.95771 -0.10613,-4.99258 z"
       id="path14"
       inkscape:connector-curvature="0" />
    <path
       style="display:inline;stroke-width:0.46142191"
       d="m -183.49049,14.92957 v 1.52731 a 16.578889,16.578889 0 0 1 -0.10151,1.73494 h -39.55308 a 18.567618,18.567618 0 0 0 1.42579,6.72753 16.874199,16.874199 0 0 0 3.69138,5.50477 17.732444,17.732444 0 0 0 5.50476,3.72367 16.994169,16.994169 0 0 0 6.83366,1.38427 q 5.39863,0 9.32534,-2.4963 a 18.678359,18.678359 0 0 0 5.96617,-5.76316 l 5.19561,4.07897 q -4.27738,5.40787 -9.42684,7.74728 a 26.35642,26.35642 0 0 1 -11.06951,2.33018 25.401276,25.401276 0 0 1 -9.83752,-1.8826 23.038796,23.038796 0 0 1 -7.79803,-5.25098 24.787585,24.787585 0 0 1 -5.14946,-7.95492 25.954982,25.954982 0 0 1 -1.88722,-9.98978 26.679415,26.679415 0 0 1 1.84569,-9.98979 24.113909,24.113909 0 0 1 5.07564,-7.9503 23.463304,23.463304 0 0 1 7.64115,-5.25098 23.777071,23.777071 0 0 1 9.48222,-1.8826 24.358463,24.358463 0 0 1 9.88827,1.8826 20.431762,20.431762 0 0 1 7.13819,5.09872 21.94984,21.94984 0 0 1 4.33275,7.49349 27.966782,27.966782 0 0 1 1.47655,9.17768 z m -7.03207,-2.24251 q -0.30916,-6.72753 -4.33275,-11.1618 -4.02359,-4.43426 -11.47094,-4.43426 a 16.057482,16.057482 0 0 0 -6.423,1.27352 16.961869,16.961869 0 0 0 -5.19561,3.46528 17.238723,17.238723 0 0 0 -3.5714,4.99259 16.094396,16.094396 0 0 0 -1.52731,5.86005 z"
       id="path16"
       inkscape:connector-curvature="0" />
    <path
       style="display:inline;stroke-width:0.46142191"
       d="m -125.1806,14.92957 v 1.52731 a 16.578889,16.578889 0 0 1 -0.10152,1.73494 h -39.55308 a 18.456876,18.456876 0 0 0 1.42579,6.72753 16.874199,16.874199 0 0 0 3.69138,5.50477 17.732444,17.732444 0 0 0 5.50476,3.72367 16.994169,16.994169 0 0 0 6.83366,1.38427 q 5.39863,0 9.32533,-2.4963 a 18.678359,18.678359 0 0 0 5.96619,-5.76316 l 5.19561,4.07897 q -4.27738,5.40787 -9.42685,7.74728 a 26.35642,26.35642 0 0 1 -11.07413,2.34402 25.401276,25.401276 0 0 1 -9.85597,-1.89183 23.038796,23.038796 0 0 1 -7.79803,-5.25098 24.787585,24.787585 0 0 1 -5.12178,-7.95491 25.954982,25.954982 0 0 1 -1.88722,-9.98979 26.679415,26.679415 0 0 1 1.84569,-9.98978 24.113909,24.113909 0 0 1 5.07564,-7.9503 23.463304,23.463304 0 0 1 7.64115,-5.25098 23.777071,23.777071 0 0 1 9.47299,-1.8826 24.358463,24.358463 0 0 1 9.88827,1.8826 20.431762,20.431762 0 0 1 7.1382,5.09871 21.94984,21.94984 0 0 1 4.33275,7.49349 27.966782,27.966782 0 0 1 1.48117,9.17307 z m -7.03669,-2.24251 q -0.30454,-6.72753 -4.32814,-11.1618 -4.0236,-4.43426 -11.47556,-4.43426 a 16.057482,16.057482 0 0 0 -6.42299,1.27352 17.040311,17.040311 0 0 0 -5.20023,3.46528 17.22488,17.22488 0 0 0 -3.56217,4.99259 16.094396,16.094396 0 0 0 -1.52731,5.86005 z"
       id="path18"
       inkscape:connector-curvature="0" />
    <path
       style="display:inline;stroke-width:0.46142191"
       d="m -270.44083,62.62675 v 39.28546 h -11.95083 V 62.62675 h -13.98108 V 52.4201 h 39.91761 v 10.20665 z"
       id="path20"
       inkscape:connector-curvature="0" />
    <path
       style="display:inline;stroke-width:0.46142191"
       d="M -198.58359,101.91221 H -210.396 l -9.78675,-33.48077 h -0.20764 l -9.76369,33.48077 h -11.90469 L -256.10906,52.4201 h 12.85982 l 7.84418,32.92707 h 0.17534 l 8.80854,-32.92707 h 12.45839 l 8.87776,32.92707 h 0.21226 l 7.96875,-32.92707 h 12.45839 z"
       id="path22"
       inkscape:connector-curvature="0" />
    <path
       style="display:inline;stroke-width:0.46142191"
       d="m -128.61358,76.95852 a 27.588416,27.588416 0 0 1 -2.02565,10.72806 24.455361,24.455361 0 0 1 -5.62934,8.30559 25.036753,25.036753 0 0 1 -8.55938,5.34788 30.130851,30.130851 0 0 1 -10.76497,1.91951 29.826312,29.826312 0 0 1 -10.73268,-1.88721 25.115195,25.115195 0 0 1 -8.52707,-5.34788 24.381534,24.381534 0 0 1 -5.62474,-8.30559 27.588416,27.588416 0 0 1 -2.03025,-10.72806 27.270035,27.270035 0 0 1 2.03025,-10.73268 23.42639,23.42639 0 0 1 5.62474,-8.13948 24.999839,24.999839 0 0 1 8.52707,-5.17254 30.739928,30.739928 0 0 1 10.73268,-1.82723 31.053695,31.053695 0 0 1 10.76497,1.818 24.916783,24.916783 0 0 1 8.55938,5.17254 23.500218,23.500218 0 0 1 5.62934,8.13948 27.270035,27.270035 0 0 1 2.02565,10.70961 z m -12.79062,0 a 17.031083,17.031083 0 0 0 -1.04743,-5.99849 14.424049,14.424049 0 0 0 -2.90234,-4.78956 13.418149,13.418149 0 0 0 -4.47579,-3.1469 14.188724,14.188724 0 0 0 -5.76316,-1.14894 13.713459,13.713459 0 0 0 -10.20666,4.29584 13.635017,13.635017 0 0 0 -2.90234,4.78956 18.58146,18.58146 0 0 0 0.0369,12.19538 14.599389,14.599389 0 0 0 2.90235,4.85878 13.17821,13.17821 0 0 0 4.43426,3.17919 14.765501,14.765501 0 0 0 11.46634,0 13.56119,13.56119 0 0 0 4.47118,-3.17919 14.377907,14.377907 0 0 0 2.93925,-4.85878 17.709373,17.709373 0 0 0 1.04743,-6.19689 z"
       id="path24-3"
       inkscape:connector-curvature="0" />
    <path
       style="display:inline;stroke-width:0.46142191"
       d="m -193.93708,186.26475 a 26.056495,26.056495 0 0 1 -1.88721,9.98979 24.058538,24.058538 0 0 1 -5.26021,7.9503 23.777071,23.777071 0 0 1 -8.05181,5.25098 27.41769,27.41769 0 0 1 -10.29894,1.88721 27.103923,27.103923 0 0 1 -10.19281,-1.88721 23.735543,23.735543 0 0 1 -8.05181,-5.25098 23.993939,23.993939 0 0 1 -5.25098,-7.9503 27.38539,27.38539 0 0 1 0,-19.97957 23.532517,23.532517 0 0 1 13.30279,-13.20128 27.011639,27.011639 0 0 1 10.19281,-1.88722 27.325406,27.325406 0 0 1 10.29894,1.88722 23.532517,23.532517 0 0 1 13.30279,13.20128 26.056495,26.056495 0 0 1 1.89644,9.98978 z m -7.34122,0 a 21.848327,21.848327 0 0 0 -1.27352,-7.49349 18.383049,18.383049 0 0 0 -3.60832,-6.11384 17.114139,17.114139 0 0 0 -5.70779,-4.12973 18.02314,18.02314 0 0 0 -7.54425,-1.53192 17.644774,17.644774 0 0 0 -7.51195,1.53192 17.257179,17.257179 0 0 0 -5.66164,4.12973 18.295379,18.295379 0 0 0 -3.61755,6.11384 22.683501,22.683501 0 0 0 0,14.98698 18.295379,18.295379 0 0 0 3.61755,6.11384 16.611189,16.611189 0 0 0 5.66164,4.07897 18.138495,18.138495 0 0 0 7.48888,1.47655 18.530704,18.530704 0 0 0 7.54425,-1.47655 16.491219,16.491219 0 0 0 5.73086,-4.07897 18.383049,18.383049 0 0 0 3.62216,-6.11384 21.848327,21.848327 0 0 0 1.25968,-7.49349 z"
       id="path6"
       inkscape:connector-curvature="0" />
    <path
       style="display:inline;stroke-width:0.46142191"
       d="m -267.03092,202.06384 a 19.582746,19.582746 0 0 1 -7.9503,6.92133 23.149537,23.149537 0 0 1 -10.08207,2.35786 25.567388,25.567388 0 0 1 -10.15128,-1.93797 23.144923,23.144923 0 0 1 -7.74727,-5.30174 23.860127,23.860127 0 0 1 -4.99259,-7.9503 28.27132,28.27132 0 0 1 0,-19.77654 23.860127,23.860127 0 0 1 4.99259,-7.9503 23.144923,23.144923 0 0 1 7.74727,-5.30174 25.567388,25.567388 0 0 1 10.15128,-1.93797 22.701958,22.701958 0 0 1 10.0913,2.39478 19.753472,19.753472 0 0 1 7.9503,7.08744 h 0.20302 v -37.61973 h 6.92133 v 77.05746 h -6.92133 v -8.04258 z m -35.3726,-15.79909 a 22.609674,22.609674 0 0 0 1.22276,7.49349 18.152338,18.152338 0 0 0 3.51604,6.11384 15.95597,15.95597 0 0 0 5.6801,4.07897 18.802943,18.802943 0 0 0 7.64576,1.47655 17.995454,17.995454 0 0 0 13.11823,-5.50476 18.212323,18.212323 0 0 0 3.82519,-6.06308 21.663759,21.663759 0 0 0 0,-15.19001 18.844471,18.844471 0 0 0 -3.82519,-6.11846 17.584789,17.584789 0 0 0 -5.8093,-4.07435 17.995454,17.995454 0 0 0 -7.34123,-1.48117 18.28615,18.28615 0 0 0 -7.61346,1.53192 16.54659,16.54659 0 0 0 -5.65703,4.12973 18.152338,18.152338 0 0 0 -3.51603,6.11384 22.609674,22.609674 0 0 0 -1.24584,7.49349 z"
       id="path4"
       inkscape:connector-curvature="0" />
    <path
       style="display:inline;stroke-width:0.46142191"
       d="m -157.54474,168.22316 h -13.45967 v 27.82835 a 15.752944,15.752944 0 0 0 0.51217,4.38351 6.1692109,6.1692109 0 0 0 1.47655,2.69932 5.034113,5.034113 0 0 0 2.30711,1.32889 11.074126,11.074126 0 0 0 2.85621,0.3553 12.05234,12.05234 0 0 0 3.00847,-0.40605 14.954684,14.954684 0 0 0 3.00385,-1.12587 l 0.30916,5.99848 a 20.85627,20.85627 0 0 1 -3.82519,1.0705 24.801428,24.801428 0 0 1 -4.33275,0.3553 17.797043,17.797043 0 0 1 -4.07897,-0.50757 10.349693,10.349693 0 0 1 -3.97285,-1.93797 10.612704,10.612704 0 0 1 -3.00847,-3.87133 q -1.17201,-2.45015 -1.17201,-6.42299 v -29.74787 h -9.90211 v -5.81392 h 9.88827 v -13.46891 h 6.92133 v 13.45507 h 13.45967 z"
       id="path8"
       inkscape:connector-curvature="0" />
    <path
       style="display:inline;stroke-width:0.46142191"
       d="m -121.36003,173.72792 a 12.181538,12.181538 0 0 0 -4.61422,-4.84493 13.404306,13.404306 0 0 0 -7.08283,-1.88722 16.846514,16.846514 0 0 0 -3.69137,0.41067 9.9390279,9.9390279 0 0 0 -3.26226,1.32428 7.2258671,7.2258671 0 0 0 -2.3071,2.34402 6.3722366,6.3722366 0 0 0 -0.86748,3.36377 5.7723881,5.7723881 0 0 0 2.76853,5.14947 q 2.76854,1.7857 8.66551,3.00847 8.45786,1.73033 12.48607,5.04334 4.02822,3.31301 4.00515,8.91929 0,4.08358 -1.58268,6.88441 a 13.754987,13.754987 0 0 1 -4.12511,4.58653 16.652717,16.652717 0 0 1 -5.76316,2.54705 27.708386,27.708386 0 0 1 -6.45991,0.76596 25.811942,25.811942 0 0 1 -10.49735,-2.24251 19.435091,19.435091 0 0 1 -8.36096,-7.03668 l 5.50476,-4.07436 a 15.586832,15.586832 0 0 0 13.25204,7.43812 21.751429,21.751429 0 0 0 4.28199,-0.40605 9.8698147,9.8698147 0 0 0 3.57141,-1.42579 7.8118729,7.8118729 0 0 0 2.44554,-2.60242 7.7195886,7.7195886 0 0 0 0.92284,-3.92209 q 0,-3.76981 -3.62216,-5.65703 -3.62217,-1.88721 -10.4466,-3.51603 -2.13638,-0.51218 -4.53577,-1.27814 a 15.383806,15.383806 0 0 1 -4.43427,-2.24251 12.186153,12.186153 0 0 1 -3.36838,-3.71906 10.889557,10.889557 0 0 1 -1.32428,-5.60628 12.822915,12.822915 0 0 1 1.43041,-6.27072 12.536833,12.536833 0 0 1 3.82057,-4.282 17.044925,17.044925 0 0 1 5.45401,-2.49629 24.386148,24.386148 0 0 1 6.32148,-0.81672 22.222079,22.222079 0 0 1 9.68986,2.24251 15.623746,15.623746 0 0 1 7.03207,6.32148 z"
       id="path10"
       inkscape:connector-curvature="0" />
    <rect
       style="display:inline;stroke-width:0.46142191"
       x="-104.0828"
       y="164.46005"
       width="6.972085"
       height="88.809875"
       transform="rotate(30)"
       id="rect28" />
    <path
       style="display:inline;stroke-width:0.46142191"
       d="m -128.61358,76.95852 a 27.588416,27.588416 0 0 1 -2.02565,10.72806 24.455361,24.455361 0 0 1 -5.62934,8.30559 25.036753,25.036753 0 0 1 -8.55938,5.34788 30.130851,30.130851 0 0 1 -10.76497,1.91951 29.826312,29.826312 0 0 1 -10.73268,-1.88721 25.115195,25.115195 0 0 1 -8.52707,-5.34788 24.381534,24.381534 0 0 1 -5.62474,-8.30559 27.588416,27.588416 0 0 1 -2.03025,-10.72806 27.270035,27.270035 0 0 1 2.03025,-10.73268 23.42639,23.42639 0 0 1 5.62474,-8.13948 24.999839,24.999839 0 0 1 8.52707,-5.17254 30.739928,30.739928 0 0 1 10.73268,-1.82723 31.053695,31.053695 0 0 1 10.76497,1.818 24.916783,24.916783 0 0 1 8.55938,5.17254 23.500218,23.500218 0 0 1 5.62934,8.13948 27.270035,27.270035 0 0 1 2.02565,10.70961 z m -12.79062,0 a 17.031083,17.031083 0 0 0 -1.04743,-5.99849 14.424049,14.424049 0 0 0 -2.90234,-4.78956 13.418149,13.418149 0 0 0 -4.47579,-3.1469 14.188724,14.188724 0 0 0 -5.76316,-1.14894 13.713459,13.713459 0 0 0 -10.20666,4.29584 13.635017,13.635017 0 0 0 -2.90234,4.78956 18.58146,18.58146 0 0 0 0.0369,12.19538 14.599389,14.599389 0 0 0 2.90235,4.85878 13.17821,13.17821 0 0 0 4.43426,3.17919 14.765501,14.765501 0 0 0 11.46634,0 13.56119,13.56119 0 0 0 4.47118,-3.17919 14.377907,14.377907 0 0 0 2.93925,-4.85878 17.709373,17.709373 0 0 0 1.04743,-6.19689 z"
       id="path24"
       inkscape:connector-curvature="0" />
    <path
       style="display:inline;stroke-width:0.46142191"
       d="m -192.2206,185.85409 a 27.569959,27.569959 0 0 1 -2.02563,10.72806 24.455361,24.455361 0 0 1 -5.62935,8.30559 25.036753,25.036753 0 0 1 -8.55937,5.34788 30.029338,30.029338 0 0 1 -10.76498,1.91952 29.729414,29.729414 0 0 1 -10.73267,-1.88722 25.115195,25.115195 0 0 1 -8.52708,-5.34788 24.381534,24.381534 0 0 1 -5.62473,-8.30559 27.569959,27.569959 0 0 1 -2.03026,-10.72806 27.260806,27.260806 0 0 1 2.03026,-10.72806 23.444847,23.444847 0 0 1 5.62473,-8.15794 25.073667,25.073667 0 0 1 8.52708,-5.17254 30.739928,30.739928 0 0 1 10.73267,-1.81339 31.053695,31.053695 0 0 1 10.76498,1.818 24.999839,24.999839 0 0 1 8.55937,5.17254 23.532517,23.532517 0 0 1 5.62935,8.1441 27.260806,27.260806 0 0 1 2.02563,10.70499 z m -12.7906,0 a 17.072611,17.072611 0 0 0 -1.04743,-5.99849 14.424049,14.424049 0 0 0 -2.90234,-4.78956 13.408921,13.408921 0 0 0 -4.4758,-3.14228 14.114896,14.114896 0 0 0 -5.76316,-1.15356 13.782672,13.782672 0 0 0 -10.20665,4.29584 13.635017,13.635017 0 0 0 -2.90234,4.78956 18.595303,18.595303 0 0 0 0.0369,12.2 14.530176,14.530176 0 0 0 2.90235,4.87261 13.164367,13.164367 0 0 0 4.43887,3.18381 14.811643,14.811643 0 0 0 11.46172,0 13.570418,13.570418 0 0 0 4.47118,-3.18381 14.304079,14.304079 0 0 0 2.93926,-4.85416 17.737058,17.737058 0 0 0 1.04743,-6.21996 z"
       id="path26"
       inkscape:connector-curvature="0" />
    <circle
       style="fill:#000000;fill-opacity:1;stroke:none;stroke-width:1.84172666;stroke-opacity:1"
       id="path169"
       cx="128"
       cy="128"
       r="128"
       inkscape:export-xdpi="96"
       inkscape:export-ydpi="96" />
    <ellipse
       style="fill:#ffffff;fill-opacity:1;stroke:none;stroke-width:1.77334833;stroke-opacity:1"
       id="path169-0"
       cx="124.5"
       cy="129"
       rx="122.5"
       ry="124"
       inkscape:export-xdpi="96"
       inkscape:export-ydpi="96" />
    <rect
       style="display:inline;stroke-width:0.46142191"
       x="174.09169"
       y="-37.845383"
       width="6.972085"
       height="88.809875"
       transform="rotate(44.865572)"
       id="rect28-2"
       inkscape:export-xdpi="96"
       inkscape:export-ydpi="96" />
    <path
       style="display:inline;stroke-width:0.46142191"
       d="m 195.82274,94.236907 a 27.588416,27.588416 0 0 1 -4.71016,9.849313 24.455361,24.455361 0 0 1 -7.57175,6.58339 25.036753,25.036753 0 0 1 -9.64491,2.97296 30.130851,30.130851 0 0 1 -10.89712,-0.90651 29.826312,29.826312 0 0 1 -9.88929,-4.57753 25.115195,25.115195 0 0 1 -6.86967,-7.35653 24.381534,24.381534 0 0 1 -3.30566,-9.470648 27.588416,27.588416 0 0 1 0.79001,-10.889863 27.270035,27.270035 0 0 1 4.71579,-9.852596 23.42639,23.42639 0 0 1 7.52468,-6.424015 24.999839,24.999839 0 0 1 9.5687,-2.81178 30.739928,30.739928 0 0 1 10.84224,0.987417 31.053695,31.053695 0 0 1 9.93825,4.518928 24.916783,24.916783 0 0 1 6.94588,7.195344 23.500218,23.500218 0 0 1 3.35273,9.311273 27.270035,27.270035 0 0 1 -0.78972,10.870847 z m -12.36252,-3.281462 a 17.031083,17.031083 0 0 0 0.52655,-6.06644 14.424049,14.424049 0 0 0 -1.57643,-5.373856 13.418149,13.418149 0 0 0 -3.51865,-4.189848 14.188724,14.188724 0 0 0 -5.2755,-2.589035 13.713459,13.713459 0 0 0 -10.96715,1.533519 13.635017,13.635017 0 0 0 -4.03398,3.884656 18.58146,18.58146 0 0 0 -3.09308,11.796671 14.599389,14.599389 0 0 0 1.55868,5.440767 13.17821,13.17821 0 0 0 3.47022,4.210391 14.765501,14.765501 0 0 0 11.08257,2.94172 13.56119,13.56119 0 0 0 5.13715,-1.92569 14.377907,14.377907 0 0 0 4.08741,-3.94209 17.709373,17.709373 0 0 0 2.6022,-5.720763 z"
       id="path24-9"
       inkscape:connector-curvature="0"
       inkscape:export-xdpi="96"
       inkscape:export-ydpi="96" />
    <path
       style="display:inline;stroke-width:0.46142191"
       d="m 106.40724,183.16928 a 27.569959,27.569959 0 0 1 -4.71014,9.84931 24.455361,24.455361 0 0 1 -7.571755,6.58339 25.036753,25.036753 0 0 1 -9.644902,2.97296 30.029338,30.029338 0 0 1 -10.897136,-0.9065 29.729414,29.729414 0 0 1 -9.889282,-4.57754 25.115195,25.115195 0 0 1 -6.869672,-7.35653 24.381534,24.381534 0 0 1 -3.305656,-9.47064 27.569959,27.569959 0 0 1 0.789995,-10.88987 27.260806,27.260806 0 0 1 4.714616,-9.84813 23.444847,23.444847 0 0 1 7.529408,-6.44186 25.073667,25.073667 0 0 1 9.568709,-2.81177 30.739928,30.739928 0 0 1 10.838682,1.00079 31.053695,31.053695 0 0 1 9.938268,4.51893 24.999839,24.999839 0 0 1 6.945865,7.19534 23.532517,23.532517 0 0 1 3.35155,9.31574 27.260806,27.260806 0 0 1 -0.78855,10.86638 z m -12.362505,-3.28145 a 17.072611,17.072611 0 0 0 0.526551,-6.06645 14.424049,14.424049 0 0 0 -1.576429,-5.37386 13.408921,13.408921 0 0 0 -3.519838,-4.18539 14.114896,14.114896 0 0 0 -5.274321,-2.5935 13.782672,13.782672 0 0 0 -10.967143,1.53353 13.635017,13.635017 0 0 0 -4.033973,3.88465 18.595303,18.595303 0 0 0 -3.094269,11.80114 14.530176,14.530176 0 0 0 1.55513,5.45413 13.164367,13.164367 0 0 0 3.47349,4.21605 14.811643,14.811643 0 0 0 11.078101,2.94053 13.570418,13.570418 0 0 0 5.138345,-1.93016 14.304079,14.304079 0 0 0 4.086229,-3.93762 17.737058,17.737058 0 0 0 2.608116,-5.74306 z"
       id="path26-0"
       inkscape:connector-curvature="0"
       inkscape:export-xdpi="96"
       inkscape:export-ydpi="96" />
    <circle
       style="fill:#ff2a2a;fill-opacity:1;stroke:none;stroke-opacity:1"
       id="path209"
       cx="385.5"
       cy="31.5"
       r="46.5" />
  </g>
</svg>
